<?xml version="1.0"?>
<svg version="1.1" xmlns="http://www.w3.org/2000/svg" width="507" height="100" style="border: dashed 2px #aaa"><path fill="#4680c2" d="M15.71484375,97.140625q0-0.55078125,0.029296875-1.08984375t0.099609375-1.06640625q0.046875-0.26953125,0.416015625-0.38671875t0.615234375-0.1171875l0.28125,0.0234375q0.33984375,0.046875,0.685546875-0.046875t0.685546875-0.09375q0.796875,0,1.78125,0.17578125t1.845703125,0.59765625t1.447265625,1.107421875t0.5859375,1.693359375t-0.609375,1.880859375t-1.53515625,1.53515625t-1.9921875,1.037109375t-1.95703125,0.375q0.09375,2.26171875,0.263671875,4.48828125t0.580078125,4.453125l0.0234375,0.15234375q0,0.1640625-0.146484375,0.26953125t-0.345703125,0.169921875t-0.404296875,0.087890625t-0.333984375,0.0234375q-0.29296875,0-0.708984375-0.111328125t-0.509765625-0.439453125q-0.26953125-1.03125-0.421875-2.267578125t-0.22265625-2.583984375t-0.099609375-2.712890625t-0.029296875-2.666015625l0-2.63671875q0-0.43359375-0.01171875-0.90234375t-0.01171875-0.94921875z M17.9296875,95.2421875q0,1.60546875,0.03515625,3.205078125t0.08203125,3.205078125q0.69140625-0.140625,1.412109375-0.498046875t1.30078125-0.849609375t0.9375-1.119140625t0.357421875-1.318359375q0-0.62109375-0.310546875-1.11328125t-0.802734375-0.84375q-0.48046875-0.33984375-1.08984375-0.52734375q-0.5390625-0.1640625-1.0546875-0.1640625l-0.12890625,0z M26.5859765625,104.34765625q0-0.48046875,0.169921875-0.80859375t0.720703125-0.328125q0.2109375,0,0.52734375,0.064453125t0.36328125,0.322265625q0.1171875,0.69140625,0.12890625,1.5t0.08203125,1.5234375q0.26953125-0.52734375,0.69140625-1.13671875t0.9609375-1.125t1.171875-0.85546875t1.2890625-0.33984375q0.046875,0,0.17578125,0.03515625t0.240234375,0.099609375t0.134765625,0.146484375t-0.12890625,0.15234375q-0.046875,0.140625-0.19921875,0.169921875t-0.26953125,0.029296875q-0.0703125,0-0.22265625-0.05859375q-0.8671875,0.45703125-1.4765625,1.2421875t-0.99609375,1.740234375t-0.5625,2.015625t-0.17578125,2.068359375q0,0.50390625-0.228515625,0.609375t-0.732421875,0.10546875q-0.26953125,0-0.568359375-0.05859375t-0.416015625-0.375q-0.2109375-0.66796875-0.345703125-1.53515625t-0.205078125-1.787109375t-0.099609375-1.810546875t-0.029296875-1.60546875z M34.679765625,107.8515625q0-0.66796875,0.169921875-1.376953125t0.5390625-1.27734375t0.931640625-0.92578125t1.359375-0.357421875q0.59765625,0,1.259765625,0.205078125t1.212890625,0.5859375t0.896484375,0.931640625t0.345703125,1.23046875q0,0.8203125-0.298828125,1.55859375t-0.837890625,1.318359375t-1.259765625,0.9140625t-1.564453125,0.333984375q-0.69140625,0-1.20703125-0.251953125t-0.861328125-0.673828125t-0.515625-0.99609375t-0.169921875-1.21875z M36.402421875,107.828125q0,0.2109375,0.064453125,0.62109375t0.193359375,0.802734375t0.333984375,0.6796875t0.498046875,0.263671875q0.62109375-0.0703125,1.025390625-0.404296875t0.65625-0.814453125t0.3515625-1.04296875t0.099609375-1.06640625q0-0.64453125-0.251953125-1.078125t-0.826171875-0.703125q0,0.0234375,0.0234375,0.0234375t0.0234375-0.0234375l-0.29296875-0.0703125q-0.1171875-0.046875-0.287109375-0.10546875t-0.333984375-0.2578125q-0.45703125,0.1640625-0.708984375,0.421875t-0.380859375,0.626953125t-0.158203125,0.884765625t-0.029296875,1.2421875z M43.5587109375,102.73046875q0-0.1171875,0.181640625-0.19921875t0.43359375-0.1171875t0.48046875-0.05859375t0.345703125-0.0234375q0.046875-0.31640625,0.134765625-0.85546875t0.216796875-1.154296875t0.322265625-1.236328125t0.46875-1.125t0.650390625-0.826171875t0.87890625-0.322265625l-0.0234375,0q0.1640625-0.0234375,0.322265625-0.03515625t0.322265625-0.01171875q0.38671875,0,0.837890625,0.15234375t0.837890625,0.427734375t0.650390625,0.662109375t0.263671875,0.8203125q0,0.33984375-0.169921875,0.732421875t-0.591796875,0.392578125q-0.140625,0-0.287109375-0.0703125t-0.275390625-0.15234375q0.046875-0.26953125,0.046875-0.5390625q0-0.140625-0.01171875-0.26953125q-0.03515625-0.41015625-0.17578125-0.720703125t-0.404296875-0.4921875t-0.626953125-0.134765625q-0.48046875,0.0703125-0.720703125,0.5859375t-0.333984375,1.224609375t-0.1171875,1.44140625t-0.09375,1.189453125q0.55078125,0.046875,0.931640625,0.046875l0.955078125,0q0.09375,0,0.322265625,0.01171875t0.4453125,0.046875t0.38671875,0.123046875t0.169921875,0.228515625q0,0.1171875-0.09375,0.205078125t-0.228515625,0.123046875t-0.28125,0.046875t-0.240234375,0.01171875q-0.41015625,0-0.697265625-0.03515625t-0.55078125-0.064453125t-0.55078125-0.029296875t-0.673828125,0.08203125q-0.1171875,1.30078125-0.1875,2.578125t-0.0703125,2.578125q0,2.0390625,0.12890625,3.99609375t0.46875,3.97265625q0.046875,0.1875,0.08203125,0.427734375t0.03515625,0.462890625q0,0.2109375-0.12890625,0.345703125t-0.322265625,0.193359375t-0.3984375,0.08203125t-0.369140625,0.0234375q-0.66796875,0-0.9375-0.205078125t-0.38671875-0.826171875q-0.29296875-1.65234375-0.375-3.333984375t-0.08203125-3.392578125q0-1.67578125,0.123046875-3.345703125t0.310546875-3.322265625q-0.09375,0-0.322265625,0.01171875t-0.45703125,0t-0.3984375-0.08203125t-0.169921875-0.24609375z M52.20328125,108.109375q0-0.8203125,0.181640625-1.93359375t0.615234375-2.109375t1.142578125-1.693359375t1.787109375-0.697265625q1.0078125,0,1.51171875,0.580078125t0.50390625,1.564453125q0,0.64453125-0.240234375,1.412109375t-0.685546875,1.453125t-1.0546875,1.142578125t-1.359375,0.45703125l-0.3046875-0.0234375q0,0.31640625,0.09375,0.849609375t0.275390625,1.060546875t0.46875,0.92578125t0.697265625,0.3984375q0.59765625,0,1.1484375-0.48046875t1.04296875-1.06640625t0.9140625-1.06640625t0.7734375-0.48046875q0.1875,0,0.38671875,0.05859375t0.22265625,0.328125q0,0.1640625-0.087890625,0.26953125t-0.158203125,0.234375q-0.36328125,0.62109375-0.791015625,1.18359375t-0.966796875,1.01953125t-1.177734375,0.720703125t-1.412109375,0.263671875q-1.0078125,0-1.67578125-0.357421875t-1.078125-0.9609375t-0.591796875-1.39453125t-0.181640625-1.658203125z M54.3009375,107.21875l0.328125,0.29296875q0.234375,0.2109375,0.46875,0.09375t0.421875-0.427734375t0.345703125-0.767578125t0.28125-0.9375t0.181640625-0.9375t0.05859375-0.76171875l0-0.3984375t-0.03515625-0.421875t-0.123046875-0.333984375t-0.275390625-0.169921875q-0.05859375-0.01171875-0.10546875-0.01171875q-0.3984375,0-0.6796875,0.50390625q-0.3046875,0.5625-0.4921875,1.365234375t-0.26953125,1.646484375t-0.10546875,1.265625z M61.9962890625,104.60546875q0-0.48046875,0.28125-0.826171875t0.685546875-0.5625t0.884765625-0.322265625t0.890625-0.10546875q0.31640625,0,0.84375,0.09375t1.03125,0.28125t0.873046875,0.4921875t0.369140625,0.71484375q0,0.1875-0.140625,0.333984375t-0.29296875,0.146484375q-0.31640625,0-0.57421875-0.205078125t-0.533203125-0.43359375t-0.603515625-0.43359375t-0.73828125-0.205078125t-0.744140625,0.263671875t-0.333984375,0.697265625q0,0.71484375,0.50390625,1.400390625t1.107421875,1.44140625t1.107421875,1.587890625t0.50390625,1.83984375q0,0.43359375-0.181640625,0.732421875t-0.48046875,0.486328125t-0.673828125,0.287109375t-0.7265625,0.099609375q-0.38671875,0-0.90234375-0.181640625t-0.97265625-0.48046875t-0.767578125-0.697265625t-0.310546875-0.83203125q0-0.2109375,0.298828125-0.26953125t0.439453125-0.05859375q0.0703125,0,0.216796875,0.046875t0.287109375,0.10546875t0.251953125,0.12890625t0.087890625,0.15234375q0.1171875,0.140625,0.357421875,0.416015625t0.48046875,0.4453125t0.421875,0.123046875t0.181640625-0.52734375q0-0.9140625-0.4921875-1.681640625t-1.072265625-1.5t-1.072265625-1.453125t-0.4921875-1.541015625z M70.254140625,104.60546875q0-0.48046875,0.28125-0.826171875t0.685546875-0.5625t0.884765625-0.322265625t0.890625-0.10546875q0.31640625,0,0.84375,0.09375t1.03125,0.28125t0.873046875,0.4921875t0.369140625,0.71484375q0,0.1875-0.140625,0.333984375t-0.29296875,0.146484375q-0.31640625,0-0.57421875-0.205078125t-0.533203125-0.43359375t-0.603515625-0.43359375t-0.73828125-0.205078125t-0.744140625,0.263671875t-0.333984375,0.697265625q0,0.71484375,0.50390625,1.400390625t1.107421875,1.44140625t1.107421875,1.587890625t0.50390625,1.83984375q0,0.43359375-0.181640625,0.732421875t-0.48046875,0.486328125t-0.673828125,0.287109375t-0.7265625,0.099609375q-0.38671875,0-0.90234375-0.181640625t-0.97265625-0.48046875t-0.767578125-0.697265625t-0.310546875-0.83203125q0-0.2109375,0.298828125-0.26953125t0.439453125-0.05859375q0.0703125,0,0.216796875,0.046875t0.287109375,0.10546875t0.251953125,0.12890625t0.087890625,0.15234375q0.1171875,0.140625,0.357421875,0.416015625t0.48046875,0.4453125t0.421875,0.123046875t0.181640625-0.52734375q0-0.9140625-0.4921875-1.681640625t-1.072265625-1.5t-1.072265625-1.453125t-0.4921875-1.541015625z M78.2776171875,107.8515625q0-0.66796875,0.169921875-1.376953125t0.5390625-1.27734375t0.931640625-0.92578125t1.359375-0.357421875q0.59765625,0,1.259765625,0.205078125t1.212890625,0.5859375t0.896484375,0.931640625t0.345703125,1.23046875q0,0.8203125-0.298828125,1.55859375t-0.837890625,1.318359375t-1.259765625,0.9140625t-1.564453125,0.333984375q-0.69140625,0-1.20703125-0.251953125t-0.861328125-0.673828125t-0.515625-0.99609375t-0.169921875-1.21875z M80.0002734375,107.828125q0,0.2109375,0.064453125,0.62109375t0.193359375,0.802734375t0.333984375,0.6796875t0.498046875,0.263671875q0.62109375-0.0703125,1.025390625-0.404296875t0.65625-0.814453125t0.3515625-1.04296875t0.099609375-1.06640625q0-0.64453125-0.251953125-1.078125t-0.826171875-0.703125q0,0.0234375,0.0234375,0.0234375t0.0234375-0.0234375l-0.29296875-0.0703125q-0.1171875-0.046875-0.287109375-0.10546875t-0.333984375-0.2578125q-0.45703125,0.1640625-0.708984375,0.421875t-0.380859375,0.626953125t-0.158203125,0.884765625t-0.029296875,1.2421875z M87.1565625,104.34765625q0-0.48046875,0.169921875-0.80859375t0.720703125-0.328125q0.2109375,0,0.52734375,0.064453125t0.36328125,0.322265625q0.1171875,0.69140625,0.12890625,1.5t0.08203125,1.5234375q0.26953125-0.52734375,0.69140625-1.13671875t0.9609375-1.125t1.171875-0.85546875t1.2890625-0.33984375q0.046875,0,0.17578125,0.03515625t0.240234375,0.099609375t0.134765625,0.146484375t-0.12890625,0.15234375q-0.046875,0.140625-0.19921875,0.169921875t-0.26953125,0.029296875q-0.0703125,0-0.22265625-0.05859375q-0.8671875,0.45703125-1.4765625,1.2421875t-0.99609375,1.740234375t-0.5625,2.015625t-0.17578125,2.068359375q0,0.50390625-0.228515625,0.609375t-0.732421875,0.10546875q-0.26953125,0-0.568359375-0.05859375t-0.416015625-0.375q-0.2109375-0.66796875-0.345703125-1.53515625t-0.205078125-1.787109375t-0.099609375-1.810546875t-0.029296875-1.60546875z M100.08046875,95.458984375q-0.029296875-0.357421875,0.046875-0.62109375t0.3046875-0.43359375t0.732421875-0.169921875l1.88671875,0q0.38671875,0,1.013671875,0.041015625t1.34765625,0.123046875t1.435546875,0.251953125t1.306640625,0.421875t0.9609375,0.62109375t0.369140625,0.873046875q0,0.71484375-0.416015625,1.341796875t-1.04296875,1.130859375t-1.32421875,0.896484375t-1.248046875,0.708984375q2.1796875,0.48046875,3.41015625,1.9921875t1.23046875,3.7734375q0,1.1953125-0.45703125,2.361328125t-1.248046875,2.103515625t-1.875,1.51171875t-2.326171875,0.57421875q-0.1640625,0-0.369140625-0.03515625t-0.375-0.111328125t-0.29296875-0.216796875t-0.123046875-0.36328125q0-1.03125,1.11328125-1.03125q0.1875,0,0.439453125,0.052734375t0.392578125,0.216796875q0.64453125-0.26953125,1.177734375-0.85546875t0.90234375-1.306640625t0.57421875-1.51171875t0.205078125-1.435546875q0-0.7734375-0.228515625-1.576171875t-0.662109375-1.48828125t-1.06640625-1.154296875t-1.453125-0.5859375q-0.2109375-0.0234375-0.462890625-0.03515625l-0.50390625-0.0234375t-0.4921875-0.0703125t-0.416015625-0.1875q0.09375,1.9453125,0.240234375,3.87890625t0.392578125,3.87890625q0.09375,0.09375,0.12890625,0.275390625t0.05859375,0.38671875t0.0234375,0.392578125l0,0.31640625q0,0.2109375-0.140625,0.345703125t-0.333984375,0.216796875t-0.41015625,0.10546875t-0.380859375,0.0234375q-0.52734375,0-0.80859375-0.140625t-0.3984375-0.41015625t-0.15234375-0.615234375t-0.05859375-0.755859375q-0.31640625-3.26953125-0.45703125-6.46875t-0.140625-6.46875q0-0.38671875-0.029296875-0.744140625z M102.242578125,94.9609375q0,1.44140625,0.09375,2.888671875t0.1640625,2.888671875q0.52734375-0.31640625,1.3828125-0.744140625t1.658203125-0.943359375t1.376953125-1.13671875t0.57421875-1.34765625q0-0.57421875-0.6796875-0.873046875t-1.58203125-0.4453125t-1.763671875-0.181640625t-1.224609375-0.10546875z M112.4808984375,108.109375q0-0.8203125,0.181640625-1.93359375t0.615234375-2.109375t1.142578125-1.693359375t1.787109375-0.697265625q1.0078125,0,1.51171875,0.580078125t0.50390625,1.564453125q0,0.64453125-0.240234375,1.412109375t-0.685546875,1.453125t-1.0546875,1.142578125t-1.359375,0.45703125l-0.3046875-0.0234375q0,0.31640625,0.09375,0.849609375t0.275390625,1.060546875t0.46875,0.92578125t0.697265625,0.3984375q0.59765625,0,1.1484375-0.48046875t1.04296875-1.06640625t0.9140625-1.06640625t0.7734375-0.48046875q0.1875,0,0.38671875,0.05859375t0.22265625,0.328125q0,0.1640625-0.087890625,0.26953125t-0.158203125,0.234375q-0.36328125,0.62109375-0.791015625,1.18359375t-0.966796875,1.01953125t-1.177734375,0.720703125t-1.412109375,0.263671875q-1.0078125,0-1.67578125-0.357421875t-1.078125-0.9609375t-0.591796875-1.39453125t-0.181640625-1.658203125z M114.5785546875,107.21875l0.328125,0.29296875q0.234375,0.2109375,0.46875,0.09375t0.421875-0.427734375t0.345703125-0.767578125t0.28125-0.9375t0.181640625-0.9375t0.05859375-0.76171875l0-0.3984375t-0.03515625-0.421875t-0.123046875-0.333984375t-0.275390625-0.169921875q-0.05859375-0.01171875-0.10546875-0.01171875q-0.3984375,0-0.6796875,0.50390625q-0.3046875,0.5625-0.4921875,1.365234375t-0.26953125,1.646484375t-0.10546875,1.265625z M122.285625,107.6875l0-0.33984375q0-0.421875,0.0234375-0.796875q0.0234375-0.52734375,0.0234375-0.8671875q0-0.1875,0.0234375-0.427734375t0.1171875-0.380859375q0.1171875-0.1171875,0.275390625-0.240234375t0.345703125-0.123046875q0.59765625,0,0.9375,0.134765625t0.36328125,0.556640625l0.046875,0.36328125q0.2109375-0.50390625,0.5625-1.248046875t0.814453125-1.41796875t1.04296875-1.1484375t1.224609375-0.474609375q0.59765625,0,0.984375,0.5625t0.615234375,1.435546875t0.322265625,1.9453125t0.12890625,2.103515625t0.046875,1.880859375t0.08203125,1.283203125q0.046875,0.36328125,0.158203125,0.767578125t0.111328125,0.744140625q0,0.09375-0.134765625,0.181640625t-0.287109375,0.146484375t-0.310546875,0.09375t-0.228515625,0.03515625q-0.45703125,0-0.650390625-0.685546875t-0.240234375-1.716796875t-0.046875-2.232421875t-0.08203125-2.232421875t-0.333984375-1.716796875t-0.802734375-0.708984375q-0.50390625,0-1.04296875,0.650390625t-0.92578125,1.728515625q-0.375,1.078125-0.515625,2.44921875q-0.046875,0.43359375-0.046875,0.8671875q0,0.94921875,0.19921875,1.8984375q0.0234375,0.1640625-0.134765625,0.24609375t-0.392578125,0.12890625t-0.474609375,0.05859375t-0.369140625,0.01171875q-0.45703125,0-0.732421875-0.322265625t-0.427734375-0.826171875t-0.205078125-1.130859375t-0.064453125-1.236328125z M132.4536328125,100.1875q0-0.1640625,0.3515625-0.28125t0.796875-0.193359375t0.861328125-0.111328125t0.568359375-0.05859375q0-0.31640625,0.0234375-0.638671875t0.12890625-0.57421875t0.333984375-0.404296875t0.638671875-0.15234375q0.33984375,0,0.515625,0.08203125t0.375,0.33984375q0.046875,0.140625,0.046875,0.26953125l0,0.392578125t-0.0234375,0.404296875q0.43359375-0.046875,0.861328125-0.111328125t0.861328125-0.064453125q0.31640625,0,0.43359375,0.01171875t0.234375,0.28125q0.09375,0.26953125-0.228515625,0.41015625t-0.7734375,0.2109375t-0.896484375,0.10546875t-0.5390625,0.03515625q-0.140625,2.015625-0.287109375,3.99609375t-0.146484375,4.01953125q0,0.9140625,0.05859375,1.88671875t0.328125,1.83984375q0.0703125,0.26953125,0.234375,0.50390625t0.1640625,0.50390625q0,0.1640625-0.12890625,0.2578125t-0.310546875,0.158203125t-0.36328125,0.076171875t-0.298828125,0.01171875q-0.73828125,0-1.125-0.55078125t-0.556640625-1.318359375t-0.181640625-1.576171875t-0.01171875-1.3125q0-1.03125,0.041015625-2.109375t0.099609375-2.1328125t0.1640625-2.0625t0.24609375-1.875q-0.41015625,0.046875-0.802734375,0.10546875t-0.802734375,0.05859375q-0.09375,0-0.251953125-0.01171875t-0.298828125-0.05859375t-0.240234375-0.12890625t-0.099609375-0.234375z M141.414609375,111.7890625q0-0.33984375,0.029296875-0.71484375t0.052734375-0.703125l0.0703125-1.7578125q0.1171875-2.109375,0.287109375-4.1484375t0.287109375-4.125q0.0703125-1.1484375,0.10546875-2.255859375t0.10546875-2.255859375q-0.046875-0.09375-0.046875-0.12890625q0-0.1640625,0.123046875-0.2578125t0.287109375-0.158203125t0.345703125-0.087890625t0.275390625-0.0234375l0.26953125,0q0.36328125,0.046875,0.52734375,0.228515625t0.2109375,0.43359375t0.0234375,0.5390625t-0.0234375,0.533203125q0,1.69921875-0.08203125,3.462890625t-0.1875,3.5390625t-0.193359375,3.55078125t-0.087890625,3.509765625l0,0.8203125q0,0.55078125-0.310546875,0.7265625t-0.861328125,0.17578125q-0.48046875,0-0.84375-0.2109375t-0.36328125-0.69140625z M146.7896484375,108.109375q0-0.8203125,0.181640625-1.93359375t0.615234375-2.109375t1.142578125-1.693359375t1.787109375-0.697265625q1.0078125,0,1.51171875,0.580078125t0.50390625,1.564453125q0,0.64453125-0.240234375,1.412109375t-0.685546875,1.453125t-1.0546875,1.142578125t-1.359375,0.45703125l-0.3046875-0.0234375q0,0.31640625,0.09375,0.849609375t0.275390625,1.060546875t0.46875,0.92578125t0.697265625,0.3984375q0.59765625,0,1.1484375-0.48046875t1.04296875-1.06640625t0.9140625-1.06640625t0.7734375-0.48046875q0.1875,0,0.38671875,0.05859375t0.22265625,0.328125q0,0.1640625-0.087890625,0.26953125t-0.158203125,0.234375q-0.36328125,0.62109375-0.791015625,1.18359375t-0.966796875,1.01953125t-1.177734375,0.720703125t-1.412109375,0.263671875q-1.0078125,0-1.67578125-0.357421875t-1.078125-0.9609375t-0.591796875-1.39453125t-0.181640625-1.658203125z M148.8873046875,107.21875l0.328125,0.29296875q0.234375,0.2109375,0.46875,0.09375t0.421875-0.427734375t0.345703125-0.767578125t0.28125-0.9375t0.181640625-0.9375t0.05859375-0.76171875l0-0.3984375t-0.03515625-0.421875t-0.123046875-0.333984375t-0.275390625-0.169921875q-0.05859375-0.01171875-0.10546875-0.01171875q-0.3984375,0-0.6796875,0.50390625q-0.3046875,0.5625-0.4921875,1.365234375t-0.26953125,1.646484375t-0.10546875,1.265625z M156.58265625,105.015625q0-0.33984375,0.193359375-0.4453125t0.486328125-0.10546875q0.48046875,0,0.732421875,0.181640625t0.251953125,0.638671875q0,0.55078125,0.08203125,1.376953125t0.240234375,1.60546875t0.375,1.341796875t0.451171875,0.5625q0.43359375,0,0.767578125-0.66796875t0.5859375-1.640625t0.43359375-2.091796875t0.251953125-1.998046875q0.046875-0.48046875,0.228515625-0.697265625t0.662109375-0.216796875q0.55078125,0,0.802734375,0.45703125t0.322265625,1.125q0.05859375,0.57421875,0.05859375,1.1953125l0,0.19921875l0,0.46875q0,0.4453125,0.01171875,0.796875l0.33984375,7.18359375l0.046875,1.1953125q0.0234375,0.1640625,0.03515625,0.310546875t0.01171875,0.310546875q0,0.66796875-0.287109375,0.861328125t-0.931640625,0.193359375q-0.140625,0-0.357421875-0.0234375t-0.421875-0.09375t-0.3515625-0.193359375t-0.146484375-0.310546875l0.046875-0.1171875q0.05859375-0.703125,0.05859375-1.4765625l0-0.24609375q-0.01171875-0.9140625-0.05859375-1.8515625t-0.10546875-1.875t-0.05859375-1.8046875q-0.1640625,0.36328125-0.380859375,0.75t-0.50390625,0.697265625t-0.650390625,0.515625t-0.8203125,0.205078125q-0.66796875,0-1.1015625-0.3515625t-0.673828125-0.9140625t-0.345703125-1.259765625t-0.140625-1.39453125t-0.046875-1.330078125t-0.09375-1.06640625z M166.3522265625,98.9921875q0.1171875-0.55078125,0.515625-1.11328125t0.76171875-1.06640625q0.2109375-0.31640625,0.462890625-0.7265625t0.515625-0.767578125t0.591796875-0.59765625t0.6796875-0.240234375l0.1640625,0q0.15234375,0,0.333984375,0.046875t0.333984375,0.146484375t0.15234375,0.287109375q0,0.234375-0.17578125,0.52734375t-0.29296875,0.50390625q-0.62109375,1.125-0.99609375,1.822265625t-0.662109375,1.095703125t-0.55078125,0.5390625t-0.697265625,0.140625q-0.2109375,0-0.4921875-0.046875t-0.46875-0.234375q-0.1640625-0.1171875-0.17578125-0.31640625z M173.262421875,104.60546875q0-0.48046875,0.28125-0.826171875t0.685546875-0.5625t0.884765625-0.322265625t0.890625-0.10546875q0.31640625,0,0.84375,0.09375t1.03125,0.28125t0.873046875,0.4921875t0.369140625,0.71484375q0,0.1875-0.140625,0.333984375t-0.29296875,0.146484375q-0.31640625,0-0.57421875-0.205078125t-0.533203125-0.43359375t-0.603515625-0.43359375t-0.73828125-0.205078125t-0.744140625,0.263671875t-0.333984375,0.697265625q0,0.71484375,0.50390625,1.400390625t1.107421875,1.44140625t1.107421875,1.587890625t0.50390625,1.83984375q0,0.43359375-0.181640625,0.732421875t-0.48046875,0.486328125t-0.673828125,0.287109375t-0.7265625,0.099609375q-0.38671875,0-0.90234375-0.181640625t-0.97265625-0.48046875t-0.767578125-0.697265625t-0.310546875-0.83203125q0-0.2109375,0.298828125-0.26953125t0.439453125-0.05859375q0.0703125,0,0.216796875,0.046875t0.287109375,0.10546875t0.251953125,0.12890625t0.087890625,0.15234375q0.1171875,0.140625,0.357421875,0.416015625t0.48046875,0.4453125t0.421875,0.123046875t0.181640625-0.52734375q0-0.9140625-0.4921875-1.681640625t-1.072265625-1.5t-1.072265625-1.453125t-0.4921875-1.541015625z M186.08671875,110.734375q0.0234375-0.4921875,0.0234375-0.9609375q0-1.69921875,0.123046875-3.38671875t0.169921875-3.38671875q0.0703125-1.9453125,0.12890625-3.85546875t0.234375-3.84375q0.046875-0.48046875,0.275390625-0.626953125t0.685546875-0.146484375q0.2109375,0,0.5625,0.08203125t0.3515625,0.3984375q0.1640625,0.0234375,0.328125,0.0234375q0.24609375,0,0.50390625-0.046875q0.421875-0.0703125,0.861328125-0.158203125t0.873046875-0.169921875t0.83203125-0.08203125q0.09375,0,0.263671875,0.01171875t0.33984375,0.0703125t0.287109375,0.146484375t0.1171875,0.228515625t-0.275390625,0.251953125t-0.720703125,0.193359375t-0.9609375,0.140625t-1.0078125,0.099609375t-0.873046875,0.064453125t-0.544921875,0.0234375l-0.0234375,4.40625l0.0234375,2.19140625q0.36328125,0,1.08984375-0.0234375q0.29296875-0.01171875,0.5859375-0.01171875q0.4453125,0,0.9140625,0.0234375q0.7734375,0.03515625,1.39453125,0.140625t0.78515625,0.375q0,0.1640625-0.169921875,0.263671875t-0.380859375,0.146484375t-0.427734375,0.05859375t-0.310546875,0.01171875q-0.8671875,0-1.74609375-0.03515625t-1.734375-0.140625q0,1.44140625-0.076171875,2.859375t-0.076171875,2.859375q0,0.62109375,0.01171875,1.224609375t0.140625,1.201171875q0.31640625-0.0234375,0.685546875-0.05859375t0.75-0.087890625t0.732421875-0.087890625t0.609375-0.03515625q0.140625,0,0.380859375,0.03515625t0.4921875,0.1171875t0.43359375,0.205078125t0.181640625,0.287109375q0,0.1875-0.345703125,0.333984375t-0.884765625,0.234375t-1.177734375,0.123046875t-1.236328125,0.046875t-1.078125,0.01171875l-0.6796875,0q-0.64453125,0-0.943359375-0.240234375t-0.416015625-0.626953125q-0.09375-0.31640625-0.08203125-0.71484375l0-0.1640625z M195.2351953125,111.30859375q0-0.0703125,0.169921875-0.375t0.43359375-0.732421875t0.57421875-0.931640625t0.62109375-0.99609375t0.580078125-0.890625t0.41015625-0.609375q-0.140625-0.26953125-0.48046875-0.73828125t-0.697265625-0.94921875t-0.62109375-0.92578125t-0.263671875-0.65625q0-0.33984375,0.333984375-0.4453125t0.650390625-0.10546875q0.33984375,0,0.48046875,0.05859375t0.375,0.328125q-0.0234375,0.0703125,0.169921875,0.369140625t0.45703125,0.6328125t0.50390625,0.609375t0.287109375,0.357421875l0.515625-0.515625t0.638671875-0.591796875t0.697265625-0.48046875t0.66796875-0.193359375q0.1171875,0,0.357421875,0.05859375t0.240234375,0.234375q-0.33984375,0.36328125-0.62109375,0.59765625t-0.57421875,0.474609375t-0.5859375,0.5390625t-0.6796875,0.755859375q0.1640625,0.26953125,0.62109375,0.890625t0.92578125,1.318359375t0.826171875,1.3125t0.357421875,0.849609375q0,0.140625-0.146484375,0.228515625t-0.333984375,0.146484375t-0.380859375,0.08203125t-0.287109375,0.0234375q-0.26953125,0-0.615234375-0.0703125t-0.498046875-0.31640625q-0.45703125-0.66796875-0.791015625-1.400390625t-0.814453125-1.400390625q-0.09375,0.1640625-0.380859375,0.7734375t-0.685546875,1.283203125t-0.837890625,1.201171875t-0.802734375,0.52734375l-0.0234375,0q-0.1640625,0-0.46875-0.05859375t-0.3046875-0.26953125z M204.407109375,108.2265625q0-0.57421875,0.076171875-1.306640625t0.240234375-1.48828125t0.4453125-1.4765625t0.697265625-1.283203125t0.990234375-0.908203125t1.34765625-0.345703125q0.84375,0,1.564453125,0.421875t1.224609375,1.08984375l0.375-0.046875q0.09375,0,0.263671875,0.01171875t0.328125,0.05859375t0.263671875,0.12890625t0.10546875,0.234375q0,2.90625-0.12890625,5.794921875t-0.12890625,5.794921875q0,1.30078125,0.205078125,2.595703125t0.205078125,2.443359375q0,0.1640625-0.134765625,0.263671875t-0.328125,0.158203125t-0.380859375,0.0703125t-0.31640625,0.01171875q-0.31640625,0-0.615234375-0.05859375t-0.486328125-0.3515625q-0.140625-0.234375-0.228515625-0.826171875t-0.123046875-1.259765625t-0.046875-1.306640625t-0.01171875-0.955078125q0-1.53515625,0.076171875-3.046875t0.146484375-3.046875q-0.48046875,0.890625-1.224609375,1.552734375t-1.822265625,0.662109375q-0.7734375,0-1.265625-0.328125t-0.779296875-0.83203125t-0.41015625-1.13671875t-0.123046875-1.2890625z M206.071171875,108.1796875q0,0.33984375,0.01171875,0.8203125t0.10546875,0.92578125t0.275390625,0.755859375t0.544921875,0.310546875q0.62109375,0,1.1015625-0.732421875t0.861328125-1.798828125t0.685546875-2.267578125t0.5625-2.115234375q-0.1171875-0.1875-0.345703125-0.486328125t-0.515625-0.580078125t-0.5859375-0.48046875t-0.568359375-0.17578125q-0.8203125,0.0703125-1.248046875,0.755859375t-0.6328125,1.60546875t-0.228515625,1.892578125t-0.0234375,1.5703125z M214.3993359375,106.59765625q0-0.234375,0.052734375-0.62109375t0.123046875-0.767578125t0.1640625-0.708984375t0.22265625-0.421875q0.09375-0.09375,0.322265625-0.1875t0.48046875-0.134765625t0.46875,0.03515625t0.263671875,0.310546875q-0.1640625,0.2109375-0.298828125,0.720703125t-0.205078125,1.130859375q-0.05859375,0.52734375-0.05859375,1.08984375l0,0.19921875q0.01171875,0.65625,0.1171875,1.20703125t0.322265625,0.908203125t0.603515625,0.357421875q0.8203125,0,1.5-0.755859375t1.20703125-1.845703125t0.92578125-2.314453125t0.6796875-2.138671875q0.0703125-0.26953125,0.333984375-0.36328125t0.568359375-0.064453125t0.544921875,0.146484375t0.287109375,0.28125q-0.234375,1.96875-0.369140625,3.9375t-0.134765625,3.9609375q0,0.38671875,0.03515625,0.708984375t-0.03515625,0.55078125t-0.310546875,0.36328125t-0.767578125,0.134765625q-0.1171875,0-0.298828125-0.0234375t-0.375-0.076171875t-0.328125-0.158203125t-0.134765625-0.24609375q0-0.8671875,0.064453125-1.78125t0.181640625-1.76953125q-0.31640625,0.45703125-0.697265625,0.908203125t-0.837890625,0.814453125t-0.984375,0.580078125t-1.13671875,0.216796875q-0.8671875,0-1.365234375-0.41015625t-0.75-1.025390625t-0.31640625-1.341796875t-0.064453125-1.40625z M225.4228125,107.34765625q0-1.078125,0.251953125-2.115234375t0.427734375-2.068359375q0.046875-0.26953125,0.369140625-0.333984375t0.544921875-0.064453125q0.38671875,0,0.62109375,0.1171875q0.09375,0.046875,0.17578125,0.10546875t0.08203125,0.15234375q0,1.0078125-0.240234375,1.96875t-0.240234375,2.0390625q0,0.36328125,0.052734375,0.685546875t0.099609375,0.638671875l0.0703125,0.33984375q0,0.09375,0.01171875,0.1640625t0.03515625,0.1640625q0,0.2109375-0.298828125,0.287109375t-0.521484375,0.076171875q-0.33984375,0-0.626953125-0.134765625t-0.451171875-0.462890625l-0.1640625-0.33984375q-0.140625-0.26953125-0.140625-0.603515625t-0.05859375-0.615234375z M226.1728125,100.29296875l0-0.22265625q0-0.55078125,0.275390625-0.984375t0.826171875-0.43359375q0.0703125,0,0.134765625,0.01171875t0.134765625,0.01171875q0.140625,0.0234375,0.369140625,0.111328125t0.228515625,0.275390625l0,0.0234375q-0.046875,0.09375-0.05859375,0.193359375t-0.05859375,0.169921875l0.0234375-0.0234375q-0.140625,0.36328125-0.228515625,0.5859375t-0.193359375,0.357421875t-0.263671875,0.193359375t-0.451171875,0.05859375q-0.046875,0-0.1640625-0.01171875t-0.251953125-0.046875t-0.228515625-0.09375t-0.09375-0.17578125z M230.5400390625,104.60546875q0-0.48046875,0.28125-0.826171875t0.685546875-0.5625t0.884765625-0.322265625t0.890625-0.10546875q0.31640625,0,0.84375,0.09375t1.03125,0.28125t0.873046875,0.4921875t0.369140625,0.71484375q0,0.1875-0.140625,0.333984375t-0.29296875,0.146484375q-0.31640625,0-0.57421875-0.205078125t-0.533203125-0.43359375t-0.603515625-0.43359375t-0.73828125-0.205078125t-0.744140625,0.263671875t-0.333984375,0.697265625q0,0.71484375,0.50390625,1.400390625t1.107421875,1.44140625t1.107421875,1.587890625t0.50390625,1.83984375q0,0.43359375-0.181640625,0.732421875t-0.48046875,0.486328125t-0.673828125,0.287109375t-0.7265625,0.099609375q-0.38671875,0-0.90234375-0.181640625t-0.97265625-0.48046875t-0.767578125-0.697265625t-0.310546875-0.83203125q0-0.2109375,0.298828125-0.26953125t0.439453125-0.05859375q0.0703125,0,0.216796875,0.046875t0.287109375,0.10546875t0.251953125,0.12890625t0.087890625,0.15234375q0.1171875,0.140625,0.357421875,0.416015625t0.48046875,0.4453125t0.421875,0.123046875t0.181640625-0.52734375q0-0.9140625-0.4921875-1.681640625t-1.072265625-1.5t-1.072265625-1.453125t-0.4921875-1.541015625z M238.797890625,107.34765625q0-1.078125,0.251953125-2.115234375t0.427734375-2.068359375q0.046875-0.26953125,0.369140625-0.333984375t0.544921875-0.064453125q0.38671875,0,0.62109375,0.1171875q0.09375,0.046875,0.17578125,0.10546875t0.08203125,0.15234375q0,1.0078125-0.240234375,1.96875t-0.240234375,2.0390625q0,0.36328125,0.052734375,0.685546875t0.099609375,0.638671875l0.0703125,0.33984375q0,0.09375,0.01171875,0.1640625t0.03515625,0.1640625q0,0.2109375-0.298828125,0.287109375t-0.521484375,0.076171875q-0.33984375,0-0.626953125-0.134765625t-0.451171875-0.462890625l-0.1640625-0.33984375q-0.140625-0.26953125-0.140625-0.603515625t-0.05859375-0.615234375z M239.547890625,100.29296875l0-0.22265625q0-0.55078125,0.275390625-0.984375t0.826171875-0.43359375q0.0703125,0,0.134765625,0.01171875t0.134765625,0.01171875q0.140625,0.0234375,0.369140625,0.111328125t0.228515625,0.275390625l0,0.0234375q-0.046875,0.09375-0.05859375,0.193359375t-0.05859375,0.169921875l0.0234375-0.0234375q-0.140625,0.36328125-0.228515625,0.5859375t-0.193359375,0.357421875t-0.263671875,0.193359375t-0.451171875,0.05859375q-0.046875,0-0.1640625-0.01171875t-0.251953125-0.046875t-0.228515625-0.09375t-0.09375-0.17578125z M243.4346484375,100.1875q0-0.1640625,0.3515625-0.28125t0.796875-0.193359375t0.861328125-0.111328125t0.568359375-0.05859375q0-0.31640625,0.0234375-0.638671875t0.12890625-0.57421875t0.333984375-0.404296875t0.638671875-0.15234375q0.33984375,0,0.515625,0.08203125t0.375,0.33984375q0.046875,0.140625,0.046875,0.26953125l0,0.392578125t-0.0234375,0.404296875q0.43359375-0.046875,0.861328125-0.111328125t0.861328125-0.064453125q0.31640625,0,0.43359375,0.01171875t0.234375,0.28125q0.09375,0.26953125-0.228515625,0.41015625t-0.7734375,0.2109375t-0.896484375,0.10546875t-0.5390625,0.03515625q-0.140625,2.015625-0.287109375,3.99609375t-0.146484375,4.01953125q0,0.9140625,0.05859375,1.88671875t0.328125,1.83984375q0.0703125,0.26953125,0.234375,0.50390625t0.1640625,0.50390625q0,0.1640625-0.12890625,0.2578125t-0.310546875,0.158203125t-0.36328125,0.076171875t-0.298828125,0.01171875q-0.73828125,0-1.125-0.55078125t-0.556640625-1.318359375t-0.181640625-1.576171875t-0.01171875-1.3125q0-1.03125,0.041015625-2.109375t0.099609375-2.1328125t0.1640625-2.0625t0.24609375-1.875q-0.41015625,0.046875-0.802734375,0.10546875t-0.802734375,0.05859375q-0.09375,0-0.251953125-0.01171875t-0.298828125-0.05859375t-0.240234375-0.12890625t-0.099609375-0.234375z M252.395625,108.109375q0-0.8203125,0.181640625-1.93359375t0.615234375-2.109375t1.142578125-1.693359375t1.787109375-0.697265625q1.0078125,0,1.51171875,0.580078125t0.50390625,1.564453125q0,0.64453125-0.240234375,1.412109375t-0.685546875,1.453125t-1.0546875,1.142578125t-1.359375,0.45703125l-0.3046875-0.0234375q0,0.31640625,0.09375,0.849609375t0.275390625,1.060546875t0.46875,0.92578125t0.697265625,0.3984375q0.59765625,0,1.1484375-0.48046875t1.04296875-1.06640625t0.9140625-1.06640625t0.7734375-0.48046875q0.1875,0,0.38671875,0.05859375t0.22265625,0.328125q0,0.1640625-0.087890625,0.26953125t-0.158203125,0.234375q-0.36328125,0.62109375-0.791015625,1.18359375t-0.966796875,1.01953125t-1.177734375,0.720703125t-1.412109375,0.263671875q-1.0078125,0-1.67578125-0.357421875t-1.078125-0.9609375t-0.591796875-1.39453125t-0.181640625-1.658203125z M254.49328125,107.21875l0.328125,0.29296875q0.234375,0.2109375,0.46875,0.09375t0.421875-0.427734375t0.345703125-0.767578125t0.28125-0.9375t0.181640625-0.9375t0.05859375-0.76171875l0-0.3984375t-0.03515625-0.421875t-0.123046875-0.333984375t-0.275390625-0.169921875q-0.05859375-0.01171875-0.10546875-0.01171875q-0.3984375,0-0.6796875,0.50390625q-0.3046875,0.5625-0.4921875,1.365234375t-0.26953125,1.646484375t-0.10546875,1.265625z M266.755078125,110.734375q0.0234375-0.4921875,0.0234375-0.9609375q0-1.69921875,0.123046875-3.38671875t0.169921875-3.38671875q0.0703125-1.9453125,0.12890625-3.85546875t0.234375-3.84375q0.046875-0.48046875,0.275390625-0.626953125t0.685546875-0.146484375q0.2109375,0,0.5625,0.08203125t0.3515625,0.3984375q0.1640625,0.0234375,0.328125,0.0234375q0.24609375,0,0.50390625-0.046875q0.421875-0.0703125,0.861328125-0.158203125t0.873046875-0.169921875t0.83203125-0.08203125q0.09375,0,0.263671875,0.01171875t0.33984375,0.0703125t0.287109375,0.146484375t0.1171875,0.228515625t-0.275390625,0.251953125t-0.720703125,0.193359375t-0.9609375,0.140625t-1.0078125,0.099609375t-0.873046875,0.064453125t-0.544921875,0.0234375l-0.0234375,4.40625l0.0234375,2.19140625q0.36328125,0,1.08984375-0.0234375q0.29296875-0.01171875,0.5859375-0.01171875q0.4453125,0,0.9140625,0.0234375q0.7734375,0.03515625,1.39453125,0.140625t0.78515625,0.375q0,0.1640625-0.169921875,0.263671875t-0.380859375,0.146484375t-0.427734375,0.05859375t-0.310546875,0.01171875q-0.8671875,0-1.74609375-0.03515625t-1.734375-0.140625q0,1.44140625-0.076171875,2.859375t-0.076171875,2.859375q0,0.62109375,0.01171875,1.224609375t0.140625,1.201171875q0.31640625-0.0234375,0.685546875-0.05859375t0.75-0.087890625t0.732421875-0.087890625t0.609375-0.03515625q0.140625,0,0.380859375,0.03515625t0.4921875,0.1171875t0.43359375,0.205078125t0.181640625,0.287109375q0,0.1875-0.345703125,0.333984375t-0.884765625,0.234375t-1.177734375,0.123046875t-1.236328125,0.046875t-1.078125,0.01171875l-0.6796875,0q-0.64453125,0-0.943359375-0.240234375t-0.416015625-0.626953125q-0.09375-0.31640625-0.08203125-0.71484375l0-0.1640625z M276.5012109375,111.7890625q0-0.33984375,0.029296875-0.71484375t0.052734375-0.703125l0.0703125-1.7578125q0.1171875-2.109375,0.287109375-4.1484375t0.287109375-4.125q0.0703125-1.1484375,0.10546875-2.255859375t0.10546875-2.255859375q-0.046875-0.09375-0.046875-0.12890625q0-0.1640625,0.123046875-0.2578125t0.287109375-0.158203125t0.345703125-0.087890625t0.275390625-0.0234375l0.26953125,0q0.36328125,0.046875,0.52734375,0.228515625t0.2109375,0.43359375t0.0234375,0.5390625t-0.0234375,0.533203125q0,1.69921875-0.08203125,3.462890625t-0.1875,3.5390625t-0.193359375,3.55078125t-0.087890625,3.509765625l0,0.8203125q0,0.55078125-0.310546875,0.7265625t-0.861328125,0.17578125q-0.48046875,0-0.84375-0.2109375t-0.36328125-0.69140625z M281.87625,108.109375q0-0.8203125,0.181640625-1.93359375t0.615234375-2.109375t1.142578125-1.693359375t1.787109375-0.697265625q1.0078125,0,1.51171875,0.580078125t0.50390625,1.564453125q0,0.64453125-0.240234375,1.412109375t-0.685546875,1.453125t-1.0546875,1.142578125t-1.359375,0.45703125l-0.3046875-0.0234375q0,0.31640625,0.09375,0.849609375t0.275390625,1.060546875t0.46875,0.92578125t0.697265625,0.3984375q0.59765625,0,1.1484375-0.48046875t1.04296875-1.06640625t0.9140625-1.06640625t0.7734375-0.48046875q0.1875,0,0.38671875,0.05859375t0.22265625,0.328125q0,0.1640625-0.087890625,0.26953125t-0.158203125,0.234375q-0.36328125,0.62109375-0.791015625,1.18359375t-0.966796875,1.01953125t-1.177734375,0.720703125t-1.412109375,0.263671875q-1.0078125,0-1.67578125-0.357421875t-1.078125-0.9609375t-0.591796875-1.39453125t-0.181640625-1.658203125z M283.97390625,107.21875l0.328125,0.29296875q0.234375,0.2109375,0.46875,0.09375t0.421875-0.427734375t0.345703125-0.767578125t0.28125-0.9375t0.181640625-0.9375t0.05859375-0.76171875l0-0.3984375t-0.03515625-0.421875t-0.123046875-0.333984375t-0.275390625-0.169921875q-0.05859375-0.01171875-0.10546875-0.01171875q-0.3984375,0-0.6796875,0.50390625q-0.3046875,0.5625-0.4921875,1.365234375t-0.26953125,1.646484375t-0.10546875,1.265625z M291.6692578125,107.39453125q0-0.84375,0.216796875-1.693359375t0.673828125-1.5234375t1.166015625-1.095703125t1.669921875-0.421875q0.41015625,0,0.90234375,0.099609375t0.908203125,0.31640625t0.703125,0.5625t0.287109375,0.849609375q0,0.31640625-0.1640625,0.421875t-0.43359375,0.10546875l-0.08203125-0.1171875t-0.228515625-0.298828125t-0.310546875-0.38671875t-0.31640625-0.345703125q-0.48046875-0.48046875-0.90234375-0.515625l-0.09375,0q-0.3515625,0-0.65625,0.2109375q-0.33984375,0.2578125-0.603515625,0.7265625t-0.439453125,0.99609375t-0.275390625,1.06640625t-0.099609375,0.890625q0,0.48046875,0.111328125,1.095703125t0.375,1.166015625t0.66796875,0.92578125t1.037109375,0.375q0.57421875,0,1.04296875-0.28125t0.896484375-0.626953125t0.837890625-0.62109375t0.84375-0.275390625q0.1875,0,0.380859375,0.046875t0.193359375,0.24609375l0,0.0703125q-0.2109375,0.55078125-0.71484375,0.97265625t-1.130859375,0.732421875t-1.30078125,0.462890625t-1.201171875,0.15234375q-0.984375,0-1.728515625-0.322265625t-1.236328125-0.884765625t-0.744140625-1.353515625t-0.251953125-1.728515625z M301.415390625,100.1875q0-0.1640625,0.3515625-0.28125t0.796875-0.193359375t0.861328125-0.111328125t0.568359375-0.05859375q0-0.31640625,0.0234375-0.638671875t0.12890625-0.57421875t0.333984375-0.404296875t0.638671875-0.15234375q0.33984375,0,0.515625,0.08203125t0.375,0.33984375q0.046875,0.140625,0.046875,0.26953125l0,0.392578125t-0.0234375,0.404296875q0.43359375-0.046875,0.861328125-0.111328125t0.861328125-0.064453125q0.31640625,0,0.43359375,0.01171875t0.234375,0.28125q0.09375,0.26953125-0.228515625,0.41015625t-0.7734375,0.2109375t-0.896484375,0.10546875t-0.5390625,0.03515625q-0.140625,2.015625-0.287109375,3.99609375t-0.146484375,4.01953125q0,0.9140625,0.05859375,1.88671875t0.328125,1.83984375q0.0703125,0.26953125,0.234375,0.50390625t0.1640625,0.50390625q0,0.1640625-0.12890625,0.2578125t-0.310546875,0.158203125t-0.36328125,0.076171875t-0.298828125,0.01171875q-0.73828125,0-1.125-0.55078125t-0.556640625-1.318359375t-0.181640625-1.576171875t-0.01171875-1.3125q0-1.03125,0.041015625-2.109375t0.099609375-2.1328125t0.1640625-2.0625t0.24609375-1.875q-0.41015625,0.046875-0.802734375,0.10546875t-0.802734375,0.05859375q-0.09375,0-0.251953125-0.01171875t-0.298828125-0.05859375t-0.240234375-0.12890625t-0.099609375-0.234375z M310.3763671875,104.34765625q0-0.48046875,0.169921875-0.80859375t0.720703125-0.328125q0.2109375,0,0.52734375,0.064453125t0.36328125,0.322265625q0.1171875,0.69140625,0.12890625,1.5t0.08203125,1.5234375q0.26953125-0.52734375,0.69140625-1.13671875t0.9609375-1.125t1.171875-0.85546875t1.2890625-0.33984375q0.046875,0,0.17578125,0.03515625t0.240234375,0.099609375t0.134765625,0.146484375t-0.12890625,0.15234375q-0.046875,0.140625-0.19921875,0.169921875t-0.26953125,0.029296875q-0.0703125,0-0.22265625-0.05859375q-0.8671875,0.45703125-1.4765625,1.2421875t-0.99609375,1.740234375t-0.5625,2.015625t-0.17578125,2.068359375q0,0.50390625-0.228515625,0.609375t-0.732421875,0.10546875q-0.26953125,0-0.568359375-0.05859375t-0.416015625-0.375q-0.2109375-0.66796875-0.345703125-1.53515625t-0.205078125-1.787109375t-0.099609375-1.810546875t-0.029296875-1.60546875z M318.47015625,107.8515625q0-0.66796875,0.169921875-1.376953125t0.5390625-1.27734375t0.931640625-0.92578125t1.359375-0.357421875q0.59765625,0,1.259765625,0.205078125t1.212890625,0.5859375t0.896484375,0.931640625t0.345703125,1.23046875q0,0.8203125-0.298828125,1.55859375t-0.837890625,1.318359375t-1.259765625,0.9140625t-1.564453125,0.333984375q-0.69140625,0-1.20703125-0.251953125t-0.861328125-0.673828125t-0.515625-0.99609375t-0.169921875-1.21875z M320.1928125,107.828125q0,0.2109375,0.064453125,0.62109375t0.193359375,0.802734375t0.333984375,0.6796875t0.498046875,0.263671875q0.62109375-0.0703125,1.025390625-0.404296875t0.65625-0.814453125t0.3515625-1.04296875t0.099609375-1.06640625q0-0.64453125-0.251953125-1.078125t-0.826171875-0.703125q0,0.0234375,0.0234375,0.0234375t0.0234375-0.0234375l-0.29296875-0.0703125q-0.1171875-0.046875-0.287109375-0.10546875t-0.333984375-0.2578125q-0.45703125,0.1640625-0.708984375,0.421875t-0.380859375,0.626953125t-0.158203125,0.884765625t-0.029296875,1.2421875z M327.3608203125,107.6875l0-0.33984375q0-0.421875,0.0234375-0.796875q0.0234375-0.52734375,0.0234375-0.8671875q0-0.1875,0.0234375-0.427734375t0.1171875-0.380859375q0.1171875-0.1171875,0.275390625-0.240234375t0.345703125-0.123046875q0.59765625,0,0.9375,0.134765625t0.36328125,0.556640625l0.046875,0.36328125q0.2109375-0.50390625,0.5625-1.248046875t0.814453125-1.41796875t1.04296875-1.1484375t1.224609375-0.474609375q0.59765625,0,0.984375,0.5625t0.615234375,1.435546875t0.322265625,1.9453125t0.12890625,2.103515625t0.046875,1.880859375t0.08203125,1.283203125q0.046875,0.36328125,0.158203125,0.767578125t0.111328125,0.744140625q0,0.09375-0.134765625,0.181640625t-0.287109375,0.146484375t-0.310546875,0.09375t-0.228515625,0.03515625q-0.45703125,0-0.650390625-0.685546875t-0.240234375-1.716796875t-0.046875-2.232421875t-0.08203125-2.232421875t-0.333984375-1.716796875t-0.802734375-0.708984375q-0.50390625,0-1.04296875,0.650390625t-0.92578125,1.728515625q-0.375,1.078125-0.515625,2.44921875q-0.046875,0.43359375-0.046875,0.8671875q0,0.94921875,0.19921875,1.8984375q0.0234375,0.1640625-0.134765625,0.24609375t-0.392578125,0.12890625t-0.474609375,0.05859375t-0.369140625,0.01171875q-0.45703125,0-0.732421875-0.322265625t-0.427734375-0.826171875t-0.205078125-1.130859375t-0.064453125-1.236328125z M338.009296875,107.34765625q0-1.078125,0.251953125-2.115234375t0.427734375-2.068359375q0.046875-0.26953125,0.369140625-0.333984375t0.544921875-0.064453125q0.38671875,0,0.62109375,0.1171875q0.09375,0.046875,0.17578125,0.10546875t0.08203125,0.15234375q0,1.0078125-0.240234375,1.96875t-0.240234375,2.0390625q0,0.36328125,0.052734375,0.685546875t0.099609375,0.638671875l0.0703125,0.33984375q0,0.09375,0.01171875,0.1640625t0.03515625,0.1640625q0,0.2109375-0.298828125,0.287109375t-0.521484375,0.076171875q-0.33984375,0-0.626953125-0.134765625t-0.451171875-0.462890625l-0.1640625-0.33984375q-0.140625-0.26953125-0.140625-0.603515625t-0.05859375-0.615234375z M338.759296875,100.29296875l0-0.22265625q0-0.55078125,0.275390625-0.984375t0.826171875-0.43359375q0.0703125,0,0.134765625,0.01171875t0.134765625,0.01171875q0.140625,0.0234375,0.369140625,0.111328125t0.228515625,0.275390625l0,0.0234375q-0.046875,0.09375-0.05859375,0.193359375t-0.05859375,0.169921875l0.0234375-0.0234375q-0.140625,0.36328125-0.228515625,0.5859375t-0.193359375,0.357421875t-0.263671875,0.193359375t-0.451171875,0.05859375q-0.046875,0-0.1640625-0.01171875t-0.251953125-0.046875t-0.228515625-0.09375t-0.09375-0.17578125z M343.1265234375,107.39453125q0-0.84375,0.216796875-1.693359375t0.673828125-1.5234375t1.166015625-1.095703125t1.669921875-0.421875q0.41015625,0,0.90234375,0.099609375t0.908203125,0.31640625t0.703125,0.5625t0.287109375,0.849609375q0,0.31640625-0.1640625,0.421875t-0.43359375,0.10546875l-0.08203125-0.1171875t-0.228515625-0.298828125t-0.310546875-0.38671875t-0.31640625-0.345703125q-0.48046875-0.48046875-0.90234375-0.515625l-0.09375,0q-0.3515625,0-0.65625,0.2109375q-0.33984375,0.2578125-0.603515625,0.7265625t-0.439453125,0.99609375t-0.275390625,1.06640625t-0.099609375,0.890625q0,0.48046875,0.111328125,1.095703125t0.375,1.166015625t0.66796875,0.92578125t1.037109375,0.375q0.57421875,0,1.04296875-0.28125t0.896484375-0.626953125t0.837890625-0.62109375t0.84375-0.275390625q0.1875,0,0.380859375,0.046875t0.193359375,0.24609375l0,0.0703125q-0.2109375,0.55078125-0.71484375,0.97265625t-1.130859375,0.732421875t-1.30078125,0.462890625t-1.201171875,0.15234375q-0.984375,0-1.728515625-0.322265625t-1.236328125-0.884765625t-0.744140625-1.353515625t-0.251953125-1.728515625z"/><path fill="#" d="M358.3765625,102.015625q0-0.7734375,0.064453125-1.693359375t0.228515625-1.845703125t0.4921875-1.787109375t0.84375-1.53515625t1.259765625-1.072265625t1.775390625-0.3984375q0.8203125,0,1.51171875,0.31640625t1.20703125,0.85546875t0.802734375,1.259765625t0.287109375,1.505859375q0,0.2109375-0.287109375,0.263671875t-0.404296875,0.052734375q-0.2109375,0-0.404296875-0.03515625t-0.287109375-0.28125q-0.1640625-0.45703125-0.345703125-0.9609375t-0.4453125-0.919921875t-0.650390625-0.685546875q-0.3515625-0.234375-0.890625-0.234375l-0.09375,0q-0.984375,0.0234375-1.46484375,0.703125t-0.662109375,1.65234375t-0.181640625,2.0625l0,1.93359375q0,0.48046875,0.03515625,1.39453125t0.169921875,1.9921875t0.3515625,2.197265625t0.5859375,2.0390625t0.884765625,1.5t1.2421875,0.580078125q0.64453125,0,1.125-0.4453125t0.826171875-1.142578125t0.5859375-1.55859375t0.3984375-1.728515625t0.240234375-1.611328125t0.12890625-1.224609375q-0.12890625-0.01171875-0.24609375-0.01171875q-0.55078125,0-1.078125,0.17578125q-0.66796875,0.19921875-1.3359375,0.19921875q-0.09375,0-0.251953125-0.01171875t-0.298828125-0.05859375t-0.251953125-0.134765625t-0.111328125-0.228515625q0-0.26953125,0.591796875-0.45703125t1.34765625-0.322265625t1.458984375-0.193359375t0.92578125-0.05859375q0.1171875,0,0.333984375,0.0234375t0.43359375,0.08203125t0.369140625,0.169921875t0.15234375,0.275390625q0,0.140625-0.10546875,0.251953125t-0.263671875,0.169921875t-0.322265625,0.08203125t-0.2578125,0.0234375q0.01171875,0.26953125,0.01171875,0.55078125q0,0.6328125-0.03515625,1.34765625q-0.05859375,1.03125-0.234375,2.0625t-0.5390625,2.00390625t-0.92578125,1.716796875t-1.388671875,1.201171875t-1.962890625,0.45703125q-1.2421875,0-2.09765625-0.52734375t-1.39453125-1.40625t-0.837890625-1.9921875t-0.427734375-2.279296875t-0.158203125-2.267578125t-0.029296875-1.9921875z M371.5094140625,107.8515625q0-0.66796875,0.169921875-1.376953125t0.5390625-1.27734375t0.931640625-0.92578125t1.359375-0.357421875q0.59765625,0,1.259765625,0.205078125t1.212890625,0.5859375t0.896484375,0.931640625t0.345703125,1.23046875q0,0.8203125-0.298828125,1.55859375t-0.837890625,1.318359375t-1.259765625,0.9140625t-1.564453125,0.333984375q-0.69140625,0-1.20703125-0.251953125t-0.861328125-0.673828125t-0.515625-0.99609375t-0.169921875-1.21875z M373.2320703125,107.828125q0,0.2109375,0.064453125,0.62109375t0.193359375,0.802734375t0.333984375,0.6796875t0.498046875,0.263671875q0.62109375-0.0703125,1.025390625-0.404296875t0.65625-0.814453125t0.3515625-1.04296875t0.099609375-1.06640625q0-0.64453125-0.251953125-1.078125t-0.826171875-0.703125q0,0.0234375,0.0234375,0.0234375t0.0234375-0.0234375l-0.29296875-0.0703125q-0.1171875-0.046875-0.287109375-0.10546875t-0.333984375-0.2578125q-0.45703125,0.1640625-0.708984375,0.421875t-0.380859375,0.626953125t-0.158203125,0.884765625t-0.029296875,1.2421875z M380.153984375,107.8515625q0-0.66796875,0.169921875-1.376953125t0.5390625-1.27734375t0.931640625-0.92578125t1.359375-0.357421875q0.59765625,0,1.259765625,0.205078125t1.212890625,0.5859375t0.896484375,0.931640625t0.345703125,1.23046875q0,0.8203125-0.298828125,1.55859375t-0.837890625,1.318359375t-1.259765625,0.9140625t-1.564453125,0.333984375q-0.69140625,0-1.20703125-0.251953125t-0.861328125-0.673828125t-0.515625-0.99609375t-0.169921875-1.21875z M381.876640625,107.828125q0,0.2109375,0.064453125,0.62109375t0.193359375,0.802734375t0.333984375,0.6796875t0.498046875,0.263671875q0.62109375-0.0703125,1.025390625-0.404296875t0.65625-0.814453125t0.3515625-1.04296875t0.099609375-1.06640625q0-0.64453125-0.251953125-1.078125t-0.826171875-0.703125q0,0.0234375,0.0234375,0.0234375t0.0234375-0.0234375l-0.29296875-0.0703125q-0.1171875-0.046875-0.287109375-0.10546875t-0.333984375-0.2578125q-0.45703125,0.1640625-0.708984375,0.421875t-0.380859375,0.626953125t-0.158203125,0.884765625t-0.029296875,1.2421875z M389.0329296875,107.48828125q0-0.9140625,0.193359375-1.658203125t0.615234375-1.259765625t1.107421875-0.802734375t1.669921875-0.287109375q0.55078125,0,1.125,0.146484375t0.984375,0.544921875q0-0.234375,0.046875-0.966796875t0.1171875-1.705078125t0.146484375-2.0390625t0.134765625-1.98046875t0.10546875-1.53515625t0.0703125-0.703125q0.1171875-0.33984375,0.43359375-0.404296875t0.59765625-0.064453125q0.73828125,0,0.908203125,0.234375t0.169921875,0.9375q0,2.56640625-0.228515625,5.109375t-0.228515625,5.109375q0,1.65234375,0.064453125,3.322265625t0.462890625,3.287109375l0.12890625,0.1171875l0.0703125,0.2109375l-0.17578125,0.26953125q-0.4453125,0.28125-1.03125,0.28125l-0.046875,0q-0.59765625,0-1.1015625-0.28125q-0.1875-0.1171875-0.310546875-0.697265625t-0.193359375-1.27734375t-0.10546875-1.341796875t-0.05859375-0.9140625q-0.41015625,0.9375-1.119140625,1.611328125t-1.787109375,0.673828125q-0.84375,0-1.3828125-0.36328125t-0.837890625-0.92578125t-0.421875-1.259765625t-0.123046875-1.388671875z M390.4508984375,107.55859375q0,0.26953125,0.064453125,0.796875t0.205078125,1.0546875t0.392578125,0.9375t0.662109375,0.41015625q0.55078125-0.26953125,0.99609375-0.896484375t0.767578125-1.3828125t0.50390625-1.51171875t0.181640625-1.306640625q0-0.69140625-0.50390625-1.1484375t-1.20703125-0.45703125q-0.2109375,0-0.427734375,0.08203125t-0.404296875,0.1875q-0.43359375,0.41015625-0.673828125,0.744140625t-0.36328125,0.69140625t-0.158203125,0.791015625t-0.03515625,1.0078125z M400.12671875,104.60546875q0-0.48046875,0.28125-0.826171875t0.685546875-0.5625t0.884765625-0.322265625t0.890625-0.10546875q0.31640625,0,0.84375,0.09375t1.03125,0.28125t0.873046875,0.4921875t0.369140625,0.71484375q0,0.1875-0.140625,0.333984375t-0.29296875,0.146484375q-0.31640625,0-0.57421875-0.205078125t-0.533203125-0.43359375t-0.603515625-0.43359375t-0.73828125-0.205078125t-0.744140625,0.263671875t-0.333984375,0.697265625q0,0.71484375,0.50390625,1.400390625t1.107421875,1.44140625t1.107421875,1.587890625t0.50390625,1.83984375q0,0.43359375-0.181640625,0.732421875t-0.48046875,0.486328125t-0.673828125,0.287109375t-0.7265625,0.099609375q-0.38671875,0-0.90234375-0.181640625t-0.97265625-0.48046875t-0.767578125-0.697265625t-0.310546875-0.83203125q0-0.2109375,0.298828125-0.26953125t0.439453125-0.05859375q0.0703125,0,0.216796875,0.046875t0.287109375,0.10546875t0.251953125,0.12890625t0.087890625,0.15234375q0.1171875,0.140625,0.357421875,0.416015625t0.48046875,0.4453125t0.421875,0.123046875t0.181640625-0.52734375q0-0.9140625-0.4921875-1.681640625t-1.072265625-1.5t-1.072265625-1.453125t-0.4921875-1.541015625z M412.951015625,107.62890625q0-0.796875,0.216796875-1.53515625t0.650390625-1.318359375t1.083984375-0.92578125t1.505859375-0.345703125q0.52734375,0,1.166015625,0.158203125t1.201171875,0.46875t0.9375,0.791015625t0.375,1.1015625q0,0.29296875-0.099609375,0.4453125t-0.404296875,0.15234375l-0.12890625-0.0234375q0.33984375,0.9140625,0.5859375,1.875t0.48046875,1.921875q0.09375,0.1875,0.140625,0.333984375t0.046875,0.287109375q0,0.1875-0.10546875,0.310546875t-0.275390625,0.181640625t-0.3515625,0.08203125t-0.322265625,0.0234375q-0.50390625,0-0.755859375-0.17578125t-0.36328125-0.48046875t-0.134765625-0.685546875t-0.09375-0.767578125q-0.140625,0.45703125-0.369140625,0.890625t-0.5390625,0.779296875t-0.732421875,0.55078125t-0.94921875,0.205078125q-0.7734375,0-1.30078125-0.4453125t-0.849609375-1.095703125t-0.46875-1.388671875t-0.146484375-1.37109375z M414.615078125,107.46484375q0,0.43359375,0.05859375,0.9140625t0.193359375,0.94921875t0.345703125,0.884765625t0.52734375,0.732421875q0.57421875-0.62109375,0.849609375-1.51171875t0.4921875-1.716796875t0.4921875-1.41796875t0.849609375-0.591796875q0.36328125,0,0.609375,0.12890625q-0.1171875-0.29296875-0.38671875-0.568359375t-0.603515625-0.50390625t-0.69140625-0.375t-0.673828125-0.146484375q-0.09375,0-0.216796875,0.029296875t-0.193359375,0.005859375q-0.48046875,0.140625-0.791015625,0.486328125t-0.50390625,0.814453125t-0.275390625,0.9609375t-0.08203125,0.92578125z M423.1190234375,107.6875l0-0.33984375q0-0.421875,0.0234375-0.796875q0.0234375-0.52734375,0.0234375-0.8671875q0-0.1875,0.0234375-0.427734375t0.1171875-0.380859375q0.1171875-0.1171875,0.275390625-0.240234375t0.345703125-0.123046875q0.59765625,0,0.9375,0.134765625t0.36328125,0.556640625l0.046875,0.36328125q0.2109375-0.50390625,0.5625-1.248046875t0.814453125-1.41796875t1.04296875-1.1484375t1.224609375-0.474609375q0.59765625,0,0.984375,0.5625t0.615234375,1.435546875t0.322265625,1.9453125t0.12890625,2.103515625t0.046875,1.880859375t0.08203125,1.283203125q0.046875,0.36328125,0.158203125,0.767578125t0.111328125,0.744140625q0,0.09375-0.134765625,0.181640625t-0.287109375,0.146484375t-0.310546875,0.09375t-0.228515625,0.03515625q-0.45703125,0-0.650390625-0.685546875t-0.240234375-1.716796875t-0.046875-2.232421875t-0.08203125-2.232421875t-0.333984375-1.716796875t-0.802734375-0.708984375q-0.50390625,0-1.04296875,0.650390625t-0.92578125,1.728515625q-0.375,1.078125-0.515625,2.44921875q-0.046875,0.43359375-0.046875,0.8671875q0,0.94921875,0.19921875,1.8984375q0.0234375,0.1640625-0.134765625,0.24609375t-0.392578125,0.12890625t-0.474609375,0.05859375t-0.369140625,0.01171875q-0.45703125,0-0.732421875-0.322265625t-0.427734375-0.826171875t-0.205078125-1.130859375t-0.064453125-1.236328125z M433.7675,107.48828125q0-0.9140625,0.193359375-1.658203125t0.615234375-1.259765625t1.107421875-0.802734375t1.669921875-0.287109375q0.55078125,0,1.125,0.146484375t0.984375,0.544921875q0-0.234375,0.046875-0.966796875t0.1171875-1.705078125t0.146484375-2.0390625t0.134765625-1.98046875t0.10546875-1.53515625t0.0703125-0.703125q0.1171875-0.33984375,0.43359375-0.404296875t0.59765625-0.064453125q0.73828125,0,0.908203125,0.234375t0.169921875,0.9375q0,2.56640625-0.228515625,5.109375t-0.228515625,5.109375q0,1.65234375,0.064453125,3.322265625t0.462890625,3.287109375l0.12890625,0.1171875l0.0703125,0.2109375l-0.17578125,0.26953125q-0.4453125,0.28125-1.03125,0.28125l-0.046875,0q-0.59765625,0-1.1015625-0.28125q-0.1875-0.1171875-0.310546875-0.697265625t-0.193359375-1.27734375t-0.10546875-1.341796875t-0.05859375-0.9140625q-0.41015625,0.9375-1.119140625,1.611328125t-1.787109375,0.673828125q-0.84375,0-1.3828125-0.36328125t-0.837890625-0.92578125t-0.421875-1.259765625t-0.123046875-1.388671875z M435.18546875,107.55859375q0,0.26953125,0.064453125,0.796875t0.205078125,1.0546875t0.392578125,0.9375t0.662109375,0.41015625q0.55078125-0.26953125,0.99609375-0.896484375t0.767578125-1.3828125t0.50390625-1.51171875t0.181640625-1.306640625q0-0.69140625-0.50390625-1.1484375t-1.20703125-0.45703125q-0.2109375,0-0.427734375,0.08203125t-0.404296875,0.1875q-0.43359375,0.41015625-0.673828125,0.744140625t-0.36328125,0.69140625t-0.158203125,0.791015625t-0.03515625,1.0078125z M449.427734375,94.26953125q0-0.234375,0.36328125-0.333984375t0.59765625-0.099609375q0.26953125,0,0.591796875,0.0703125t0.392578125,0.36328125q0.33984375,1.37109375,0.521484375,2.794921875t0.275390625,2.865234375t0.15234375,2.865234375t0.12890625,2.818359375q0.31640625-1.39453125,0.650390625-2.771484375t0.873046875-2.748046875l0-0.9375q0-0.59765625,0.416015625-0.861328125t1.119140625-0.263671875q0.0703125,0,0.322265625,0.03515625t0.251953125,0.234375q-0.046875,0.140625-0.111328125,0.26953125t-0.064453125,0.28125q0,1.78125,0.421875,3.650390625t0.83203125,3.638671875q0.234375-1.51171875,0.5390625-3.01171875t0.6328125-2.98828125q0.43359375-1.9921875,0.662109375-3.310546875t0.43359375-2.0859375t0.4453125-1.08984375t0.673828125-0.322265625q0.26953125-0.0234375,0.50390625,0.09375t0.1875,0.38671875q-0.84375,4.078125-1.576171875,8.1796875t-1.494140625,8.203125q0,0.234375,0.08203125,0.55078125t0.08203125,0.5625q0,0.140625-0.12890625,0.234375t-0.310546875,0.158203125t-0.3984375,0.087890625t-0.380859375,0.0234375q-0.36328125,0-0.76171875-0.111328125t-0.515625-0.638671875q-0.41015625-1.828125-0.755859375-3.673828125t-0.638671875-3.720703125q-0.09375,0.43359375-0.17578125,0.87890625t-0.15234375,0.90234375q-0.33984375,1.9921875-0.75,3.984375t-0.41015625,4.03125q0,0.50390625-0.2109375,0.650390625t-0.71484375,0.146484375q-0.38671875,0-0.65625-0.12890625q-0.2109375-0.1171875-0.3984375-0.2109375q-0.1640625-0.09375-0.298828125-0.216796875t-0.134765625-0.240234375q-0.1875-2.54296875-0.263671875-5.05078125t-0.169921875-5.05078125q-0.09375-2.28515625-0.275390625-4.564453125t-0.404296875-4.529296875z M463.6621484375,107.62890625q0-0.796875,0.216796875-1.53515625t0.650390625-1.318359375t1.083984375-0.92578125t1.505859375-0.345703125q0.52734375,0,1.166015625,0.158203125t1.201171875,0.46875t0.9375,0.791015625t0.375,1.1015625q0,0.29296875-0.099609375,0.4453125t-0.404296875,0.15234375l-0.12890625-0.0234375q0.33984375,0.9140625,0.5859375,1.875t0.48046875,1.921875q0.09375,0.1875,0.140625,0.333984375t0.046875,0.287109375q0,0.1875-0.10546875,0.310546875t-0.275390625,0.181640625t-0.3515625,0.08203125t-0.322265625,0.0234375q-0.50390625,0-0.755859375-0.17578125t-0.36328125-0.48046875t-0.134765625-0.685546875t-0.09375-0.767578125q-0.140625,0.45703125-0.369140625,0.890625t-0.5390625,0.779296875t-0.732421875,0.55078125t-0.94921875,0.205078125q-0.7734375,0-1.30078125-0.4453125t-0.849609375-1.095703125t-0.46875-1.388671875t-0.146484375-1.37109375z M465.3262109375,107.46484375q0,0.43359375,0.05859375,0.9140625t0.193359375,0.94921875t0.345703125,0.884765625t0.52734375,0.732421875q0.57421875-0.62109375,0.849609375-1.51171875t0.4921875-1.716796875t0.4921875-1.41796875t0.849609375-0.591796875q0.36328125,0,0.609375,0.12890625q-0.1171875-0.29296875-0.38671875-0.568359375t-0.603515625-0.50390625t-0.69140625-0.375t-0.673828125-0.146484375q-0.09375,0-0.216796875,0.029296875t-0.193359375,0.005859375q-0.48046875,0.140625-0.791015625,0.486328125t-0.50390625,0.814453125t-0.275390625,0.9609375t-0.08203125,0.92578125z M473.8184375,104.34765625q0-0.48046875,0.169921875-0.80859375t0.720703125-0.328125q0.2109375,0,0.52734375,0.064453125t0.36328125,0.322265625q0.1171875,0.69140625,0.12890625,1.5t0.08203125,1.5234375q0.26953125-0.52734375,0.69140625-1.13671875t0.9609375-1.125t1.171875-0.85546875t1.2890625-0.33984375q0.046875,0,0.17578125,0.03515625t0.240234375,0.099609375t0.134765625,0.146484375t-0.12890625,0.15234375q-0.046875,0.140625-0.19921875,0.169921875t-0.26953125,0.029296875q-0.0703125,0-0.22265625-0.05859375q-0.8671875,0.45703125-1.4765625,1.2421875t-0.99609375,1.740234375t-0.5625,2.015625t-0.17578125,2.068359375q0,0.50390625-0.228515625,0.609375t-0.732421875,0.10546875q-0.26953125,0-0.568359375-0.05859375t-0.416015625-0.375q-0.2109375-0.66796875-0.345703125-1.53515625t-0.205078125-1.787109375t-0.099609375-1.810546875t-0.029296875-1.60546875z M482.1466015625,108.109375q0-0.8203125,0.181640625-1.93359375t0.615234375-2.109375t1.142578125-1.693359375t1.787109375-0.697265625q1.0078125,0,1.51171875,0.580078125t0.50390625,1.564453125q0,0.64453125-0.240234375,1.412109375t-0.685546875,1.453125t-1.0546875,1.142578125t-1.359375,0.45703125l-0.3046875-0.0234375q0,0.31640625,0.09375,0.849609375t0.275390625,1.060546875t0.46875,0.92578125t0.697265625,0.3984375q0.59765625,0,1.1484375-0.48046875t1.04296875-1.06640625t0.9140625-1.06640625t0.7734375-0.48046875q0.1875,0,0.38671875,0.05859375t0.22265625,0.328125q0,0.1640625-0.087890625,0.26953125t-0.158203125,0.234375q-0.36328125,0.62109375-0.791015625,1.18359375t-0.966796875,1.01953125t-1.177734375,0.720703125t-1.412109375,0.263671875q-1.0078125,0-1.67578125-0.357421875t-1.078125-0.9609375t-0.591796875-1.39453125t-0.181640625-1.658203125z M484.2442578125,107.21875l0.328125,0.29296875q0.234375,0.2109375,0.46875,0.09375t0.421875-0.427734375t0.345703125-0.767578125t0.28125-0.9375t0.181640625-0.9375t0.05859375-0.76171875l0-0.3984375t-0.03515625-0.421875t-0.123046875-0.333984375t-0.275390625-0.169921875q-0.05859375-0.01171875-0.10546875-0.01171875q-0.3984375,0-0.6796875,0.50390625q-0.3046875,0.5625-0.4921875,1.365234375t-0.26953125,1.646484375t-0.10546875,1.265625z M491.939609375,104.60546875q0-0.48046875,0.28125-0.826171875t0.685546875-0.5625t0.884765625-0.322265625t0.890625-0.10546875q0.31640625,0,0.84375,0.09375t1.03125,0.28125t0.873046875,0.4921875t0.369140625,0.71484375q0,0.1875-0.140625,0.333984375t-0.29296875,0.146484375q-0.31640625,0-0.57421875-0.205078125t-0.533203125-0.43359375t-0.603515625-0.43359375t-0.73828125-0.205078125t-0.744140625,0.263671875t-0.333984375,0.697265625q0,0.71484375,0.50390625,1.400390625t1.107421875,1.44140625t1.107421875,1.587890625t0.50390625,1.83984375q0,0.43359375-0.181640625,0.732421875t-0.48046875,0.486328125t-0.673828125,0.287109375t-0.7265625,0.099609375q-0.38671875,0-0.90234375-0.181640625t-0.97265625-0.48046875t-0.767578125-0.697265625t-0.310546875-0.83203125q0-0.2109375,0.298828125-0.26953125t0.439453125-0.05859375q0.0703125,0,0.216796875,0.046875t0.287109375,0.10546875t0.251953125,0.12890625t0.087890625,0.15234375q0.1171875,0.140625,0.357421875,0.416015625t0.48046875,0.4453125t0.421875,0.123046875t0.181640625-0.52734375q0-0.9140625-0.4921875-1.681640625t-1.072265625-1.5t-1.072265625-1.453125t-0.4921875-1.541015625z"/></svg>
